<svg xmlns="http://www.w3.org/2000/svg" width="40" height="32.245" viewBox="0 0 40 32.245"><path d="M21.6,32.245a3.991,3.991,0,0,1-2.2-.662L10.142,25.47a3.991,3.991,0,0,0-2.2-.662H5.6a5.606,5.606,0,0,1-5.6-5.6V14.118a5.606,5.606,0,0,1,5.6-5.6H7.716A4.015,4.015,0,0,0,10.138,7.7L19.176.818a4,4,0,0,1,5.606.759A4.025,4.025,0,0,1,25.6,4V28.245A4,4,0,0,1,21.6,32.245ZM21.6,4h0l-9.038,6.882a8.046,8.046,0,0,1-1.436.872,3.978,3.978,0,0,1,.073.764v8.288a4.048,4.048,0,0,1-.056.671,7.93,7.93,0,0,1,1.2.654L21.6,28.245V4ZM5.87,12.519A1.872,1.872,0,0,0,4,14.388v4.549a1.872,1.872,0,0,0,1.87,1.869H7.2V12.519ZM29,27.963a2,2,0,0,1,0-4c3.86,0,7-3.589,7-8s-3.14-8-7-8a2,2,0,0,1,0-4,10.48,10.48,0,0,1,7.8,3.531A12.512,12.512,0,0,1,40,15.963a12.511,12.511,0,0,1-3.2,8.468A10.48,10.48,0,0,1,29,27.963Zm0-6a2,2,0,0,1,0-4,1.827,1.827,0,0,0,1.6-2,1.827,1.827,0,0,0-1.6-2,2,2,0,0,1,0-4,5.373,5.373,0,0,1,3.978,1.774,6.318,6.318,0,0,1,0,8.452A5.374,5.374,0,0,1,29,21.963Z" fill="#82c43c"/></svg>