<svg xmlns="http://www.w3.org/2000/svg" width="18" height="22.5" viewBox="0 0 18 22.5">
  <g id="Group_1272" data-name="Group 1272" transform="translate(-16 -14)">
    <g id="Icon_ionic-ios-copy" data-name="Icon ionic-ios-copy" transform="translate(16 14)">
      <path id="Path_733" data-name="Path 733" d="M24.3,5.768h4.219a.282.282,0,0,0,.281-.281h0a1.308,1.308,0,0,0-.469-1L24.72,1.479a1.753,1.753,0,0,0-.966-.347h0a.346.346,0,0,0-.347.347v3.4A.9.9,0,0,0,24.3,5.768Z" transform="translate(-10.802 -1.127)" fill="#4ec1f2"/>
      <path id="Path_734" data-name="Path 734" d="M17.766,4.875V1.125H11.625a1.5,1.5,0,0,0-1.5,1.5v15.75a1.5,1.5,0,0,0,1.5,1.5h11.25a1.5,1.5,0,0,0,1.5-1.5V6.984h-4.5A2.113,2.113,0,0,1,17.766,4.875Z" transform="translate(-6.375 -1.125)" fill="#036bbf"/>
      <path id="Path_735" data-name="Path 735" d="M6.938,21.188V5.625H6a1.5,1.5,0,0,0-1.5,1.5v16.5a1.5,1.5,0,0,0,1.5,1.5H18a1.5,1.5,0,0,0,1.5-1.5v-.937H8.438A1.5,1.5,0,0,1,6.938,21.188Z" transform="translate(-4.5 -2.625)" fill="#4ec1f2"/>
    </g>
  </g>
</svg>
