<svg xmlns="http://www.w3.org/2000/svg" xmlns:xlink="http://www.w3.org/1999/xlink" width="50" height="40.844" viewBox="0 0 50 40.844">
  <defs>
    <linearGradient id="linear-gradient" y1="0.5" x2="1" y2="0.5" gradientUnits="objectBoundingBox">
      <stop offset="0" stop-color="#124787"/>
      <stop offset="0.923" stop-color="#173b75"/>
      <stop offset="1" stop-color="#173a73"/>
    </linearGradient>
    <linearGradient id="linear-gradient-2" y1="0.5" x2="1" y2="0.5" gradientUnits="objectBoundingBox">
      <stop offset="0" stop-color="#436dcd"/>
      <stop offset="1" stop-color="#14427f"/>
    </linearGradient>
  </defs>
  <g id="icons8-night-landscape-240" transform="translate(-2 -6.057)" opacity="0.58">
    <path id="Path_1441" data-name="Path 1441" d="M37.786,6.057a5.492,5.492,0,0,1-6.155,8.61,6,6,0,1,0,6.155-8.61Z" transform="translate(6)" fill="#35c1f1"/>
    <path id="Path_1442" data-name="Path 1442" d="M21.222,16.715a3.994,3.994,0,0,0-5.093,0L2,29V40a2.165,2.165,0,0,0,2.3,2H48Z" transform="translate(0 4.901)" fill="url(#linear-gradient)"/>
    <path id="Path_1443" data-name="Path 1443" d="M44,42a2,2,0,0,0,2-2V35L33.715,22.715a3.132,3.132,0,0,0-4.429,0L12,42Z" transform="translate(6 4.901)" fill="url(#linear-gradient-2)"/>
  </g>
</svg>
