<svg xmlns="http://www.w3.org/2000/svg" width="18" height="22.154" viewBox="0 0 18 22.154">
  <g id="Group_1271" data-name="Group 1271" transform="translate(-16 -13.998)">
    <path id="Icon_metro-bin" data-name="Icon metro-bin" d="M5.883,8.851V22.7a1.389,1.389,0,0,0,1.385,1.385H19.73A1.389,1.389,0,0,0,21.114,22.7V8.851H5.883Zm4.154,12.462H8.653V11.62h1.385Zm2.769,0H11.422V11.62h1.385Zm2.769,0H14.191V11.62h1.385Zm2.769,0H16.96V11.62h1.385ZM21.46,4.7h-4.5V2.966a1.042,1.042,0,0,0-1.038-1.038H11.076a1.042,1.042,0,0,0-1.038,1.038V4.7h-4.5A1.042,1.042,0,0,0,4.5,5.736V7.466h18V5.736A1.042,1.042,0,0,0,21.46,4.7Zm-5.885,0H11.422V3.33h4.154V4.7Z" transform="translate(11.501 12.07)" fill="#ff2020"/>
  </g>
</svg>
