<svg xmlns="http://www.w3.org/2000/svg" width="36.4" height="40" viewBox="0 0 36.4 40"><path d="M29,40H7.4A7.408,7.408,0,0,1,0,32.6V7.4A7.408,7.408,0,0,1,7.4,0H24.557a3.791,3.791,0,0,1,2.92,1.367l8.043,9.652a3.809,3.809,0,0,1,.88,2.433V32.6A7.408,7.408,0,0,1,29,40ZM7.4,4A3.4,3.4,0,0,0,4,7.4V32.6A3.4,3.4,0,0,0,7.4,36H29a3.4,3.4,0,0,0,3.4-3.4V14.8H27.2A3.8,3.8,0,0,1,23.4,11V4Zm20,3.524V10.8H30.13ZM28.194,31.2H8.205a.574.574,0,0,1-.606-.534V27.733a.574.574,0,0,1,.606-.534H28.194a.574.574,0,0,1,.606.534v2.933A.574.574,0,0,1,28.194,31.2Z" fill="#1e75ff"/></svg>