<svg xmlns="http://www.w3.org/2000/svg" width="24" height="24" viewBox="0 0 24 24"><path d="M0,0H24V24H0Z" fill="none"/><path d="M3.36,18.24A3.364,3.364,0,0,1,0,14.88V3.011A3.015,3.015,0,0,1,3.011,0H5.126A1.447,1.447,0,0,1,6.179.458L9.186,3.687a.482.482,0,0,0,.351.153H19.68a.48.48,0,0,1,.48.48V14.88A3.364,3.364,0,0,1,16.8,18.24Zm.481-4.32a.48.48,0,0,0,.48.48H8.16a.48.48,0,0,0,0-.96H4.32A.481.481,0,0,0,3.84,13.92ZM19.68,2.88H9.747L7.958.96H17.28a2.88,2.88,0,0,1,2.729,1.958A1.458,1.458,0,0,0,19.68,2.88Z" transform="translate(1.92 2.88)" fill="#4ec1f2"/></svg>