<svg xmlns="http://www.w3.org/2000/svg" width="44.003" height="44" viewBox="0 0 44.003 44"><path d="M36,44H8a8.009,8.009,0,0,1-8-8V8A8.009,8.009,0,0,1,8,0H36a8.009,8.009,0,0,1,8,8V27.878a2.221,2.221,0,0,1,0,.244V36A8.009,8.009,0,0,1,36,44ZM32,20.828h0l-7.56,7.561L34.89,40H36a4,4,0,0,0,4-4V28.825l-8-8ZM15.924,24.9h0L4.072,36.757A4,4,0,0,0,8,40H29.509L15.924,24.9ZM8,4A4.005,4.005,0,0,0,4,8V31.171L14.585,20.586a2,2,0,0,1,2.9.076l4.273,4.748,8.825-8.824a2,2,0,0,1,2.829,0L40,23.169V8a4,4,0,0,0-4-4Zm7,12a5,5,0,1,1,5-5A5.006,5.006,0,0,1,15,16Zm0-6a1,1,0,1,0,1,1A1,1,0,0,0,15,10Z" fill="#ff974a"/></svg>