<svg xmlns="http://www.w3.org/2000/svg" xmlns:xlink="http://www.w3.org/1999/xlink" width="96" height="96" viewBox="0 0 96 96">
  <defs>
    <linearGradient id="linear-gradient" x1="0.039" y1="0.022" x2="0.929" y2="0.945" gradientUnits="objectBoundingBox">
      <stop offset="0" stop-color="#2aa4f4"/>
      <stop offset="1" stop-color="#007ad9"/>
    </linearGradient>
    <clipPath id="clip-Logout">
      <rect width="96" height="96"/>
    </clipPath>
  </defs>
  <g id="Logout" clip-path="url(#clip-Logout)">
    <rect width="96" height="96" fill="rgba(255,255,255,0)"/>
    <g id="icons8-logout-240" transform="translate(6.206 6)">
      <path id="Path_1430" data-name="Path 1430" d="M62.2,4H12.8A3.8,3.8,0,0,0,9,7.8V76.2A3.8,3.8,0,0,0,12.8,80H62.2A3.8,3.8,0,0,0,66,76.2V7.8A3.8,3.8,0,0,0,62.2,4Z" fill="url(#linear-gradient)"/>
      <path id="Path_1431" data-name="Path 1431" d="M57,19.717,52.087,14.8A3.8,3.8,0,0,0,45.6,17.492v6.293H22.8a3.8,3.8,0,0,0-3.8,3.8v11.4a3.8,3.8,0,0,0,3.8,3.8H45.6v6.293a3.8,3.8,0,0,0,6.487,2.687L57,46.853Z" transform="translate(9 8.715)" opacity="0.05"/>
      <path id="Path_1432" data-name="Path 1432" d="M56.1,20.575l-4.946-4.946A2.668,2.668,0,0,0,46.6,17.516v7.127H22.85A2.851,2.851,0,0,0,20,27.492v9.5a2.851,2.851,0,0,0,2.85,2.85H46.6v7.127a2.668,2.668,0,0,0,4.554,1.887L56.1,43.91Z" transform="translate(9.9 9.758)" opacity="0.07"/>
      <path id="Path_1433" data-name="Path 1433" d="M47.6,17.539V25.5H22.9A1.9,1.9,0,0,0,21,27.4V35a1.9,1.9,0,0,0,1.9,1.9H47.6v7.961a1.535,1.535,0,0,0,2.62,1.085L62.952,33.214a2.849,2.849,0,0,0,0-4.03L50.22,16.452A1.535,1.535,0,0,0,47.6,17.539Z" transform="translate(10.8 10.8)" fill="#50e6ff"/>
    </g>
  </g>
</svg>
