<svg xmlns="http://www.w3.org/2000/svg" xmlns:xlink="http://www.w3.org/1999/xlink" width="50" height="55" viewBox="0 0 50 55">
  <defs>
    <linearGradient id="linear-gradient" x1="0.5" y1="0.978" x2="0.5" y2="-0.019" gradientUnits="objectBoundingBox">
      <stop offset="0" stop-color="#92a3b0"/>
      <stop offset="0.015" stop-color="#a3b5c4"/>
      <stop offset="0.032" stop-color="#aec2d1"/>
      <stop offset="0.046" stop-color="#b2c6d6"/>
    </linearGradient>
  </defs>
  <g id="icons8-password-240" transform="translate(-4)">
    <path id="Path_1437" data-name="Path 1437" d="M54,37H4v7.016a2.666,2.666,0,0,0,2.5,2.806h45A2.666,2.666,0,0,0,54,44.016Z" transform="translate(0 8.178)" fill="#c48c00"/>
    <path id="Path_1438" data-name="Path 1438" d="M11,18.241V22.45h4.67V18.241c0-6.975,4.7-12.628,10.508-12.628h0c5.8,0,10.508,5.653,10.508,12.628V22.45h4.67V18.241C41.356,8.166,34.561,0,26.178,0h0C17.8,0,11,8.166,11,18.241Z" transform="translate(2.822)" fill="url(#linear-gradient)"/>
    <path id="Path_1439" data-name="Path 1439" d="M54,25.822H4V18.806A2.666,2.666,0,0,1,6.5,16h45A2.666,2.666,0,0,1,54,18.806Z" transform="translate(0 3.536)" fill="#fad500"/>
    <rect id="Rectangle_3177" data-name="Rectangle 3177" width="49.874" height="10" transform="translate(4.063 27.719)" fill="#edbe00"/>
    <rect id="Rectangle_3178" data-name="Rectangle 3178" width="49.874" height="10" transform="translate(4.063 36.416)" fill="#e3a600"/>
    <circle id="Ellipse_373" data-name="Ellipse 373" cx="3" cy="3" r="3" transform="translate(39.937 34.17)" fill="#3b3b3b"/>
    <ellipse id="Ellipse_374" data-name="Ellipse 374" cx="2.5" cy="3" rx="2.5" ry="3" transform="translate(31.341 34.17)" fill="#3b3b3b"/>
    <ellipse id="Ellipse_375" data-name="Ellipse 375" cx="2.5" cy="3" rx="2.5" ry="3" transform="translate(21.659 34.17)" fill="#3b3b3b"/>
    <circle id="Ellipse_376" data-name="Ellipse 376" cx="3" cy="3" r="3" transform="translate(12.063 34.17)" fill="#3b3b3b"/>
  </g>
</svg>
