<svg xmlns="http://www.w3.org/2000/svg" xmlns:xlink="http://www.w3.org/1999/xlink" viewBox="0,0,256,256" width="52px" height="52px" fill-rule="nonzero"><g fill="#ff0000" fill-rule="nonzero" stroke="none" stroke-width="1" stroke-linecap="butt" stroke-linejoin="miter" stroke-miterlimit="10" stroke-dasharray="" stroke-dashoffset="0" font-family="none" font-weight="none" font-size="none" text-anchor="none" style="mix-blend-mode: normal"><g transform="scale(9.84615,9.84615)"><path d="M7,0c-2.20312,0 -4,1.79688 -4,4v18c0,2.20313 1.79688,4 4,4h12c2.20313,0 4,-1.79687 4,-4v-14c0,-1.0625 -0.97266,-2.07031 -2.71875,-3.78125c-0.24219,-0.23828 -0.50391,-0.50391 -0.75,-0.75c-0.24609,-0.24609 -0.51172,-0.47656 -0.75,-0.71875c-1.71094,-1.74609 -2.71875,-2.75 -3.78125,-2.75zM7,2h7.28125c0.72266,0.18359 0.71875,1.05078 0.71875,1.9375v3.0625c0,0.55078 0.44922,1 1,1h3c0.99609,0 2,0.00391 2,1v13c0,1.10547 -0.89453,2 -2,2h-12c-1.10547,0 -2,-0.89453 -2,-2v-18c0,-1.10547 0.89453,-2 2,-2zM10.3125,9.65625c-0.46484,0.05078 -0.80078,0.47266 -0.75,0.9375c0.05078,0.46484 0.47266,0.80078 0.9375,0.75h2c1.67578,0 2.50391,0.28516 2.8125,0.53125c0.30859,0.24609 0.34375,0.5 0.34375,1.125c0,0.45703 -0.21094,0.87109 -0.53125,1.1875c-0.32031,0.31641 -0.74609,0.46875 -0.90625,0.46875c-1.17969,0 -1.5625,-0.32422 -1.75,-0.53125c-0.09375,-0.10547 -0.125,-0.18359 -0.15625,-0.25c-0.00781,-0.01562 -0.01172,-0.02344 -0.03125,-0.0625c-0.01172,-0.01953 -0.01562,-0.05469 -0.0625,-0.125c-0.01172,-0.01953 -0.03906,-0.03516 -0.0625,-0.0625c-0.02344,-0.02734 -0.09375,-0.09375 -0.09375,-0.09375l-0.21875,-0.15625l-0.46875,-0.03125l-0.4375,0.21875l-0.1875,0.21875c0,0 -0.01953,0.08984 -0.03125,0.125c-0.01172,0.03516 -0.02734,0.07031 -0.03125,0.09375c-0.01562,0.08984 -0.03125,0.12891 -0.03125,0.15625c-0.00391,0.05078 0,0.0625 0,0.09375v5.125c0,0.46484 0.37891,0.84375 0.84375,0.84375c0.46484,0 0.84375,-0.37891 0.84375,-0.84375v-3.375c0.49609,0.20313 1.10547,0.34375 1.875,0.34375c0.78516,0 1.51172,-0.39453 2.09375,-0.96875c0.58203,-0.57422 1.03125,-1.40234 1.03125,-2.375c0,-0.80859 -0.1875,-1.79297 -1,-2.4375c-0.8125,-0.64453 -2,-0.90625 -3.84375,-0.90625h-2c-0.03125,0 -0.0625,0 -0.09375,0c-0.03125,0 -0.0625,0 -0.09375,0z"></path></g></g></svg>