<svg xmlns="http://www.w3.org/2000/svg" width="48" height="48" viewBox="0 0 48 48"><circle cx="24" cy="24" r="24" fill="none"/><g transform="translate(2 4)"><path d="M8,40a8.009,8.009,0,0,1-8-8V8A8.01,8.01,0,0,1,8,0H36a8.01,8.01,0,0,1,8,8V32a8.009,8.009,0,0,1-8,8ZM4,8V32a4,4,0,0,0,4,4H36a4,4,0,0,0,4-4V8a4,4,0,0,0-4-4H8A4.005,4.005,0,0,0,4,8ZM14.51,30.538A3.184,3.184,0,0,1,14,28.808V11.192a3.19,3.19,0,0,1,4.922-2.681l13.619,8.807a3.193,3.193,0,0,1,0,5.362L18.923,31.488a3.187,3.187,0,0,1-4.413-.95ZM18,27.321,29.321,20,18,12.678Z" fill="#ffc542"/></g></svg>